HIERARCHY
ROOT Pelvis
{
	OFFSET 0.000000 0.941512 0.000000
	CHANNELS 6 Xposition Yposition Zposition Zrotation Yrotation Xrotation 
	JOINT Pelvis_L_Hip
	{
		OFFSET 0.000000 0.000000 0.000000
		CHANNELS 3 Zrotation Yrotation Xrotation
		JOINT L_Hip
		{
			OFFSET 0.062321 -0.080322 -0.016990
			CHANNELS 3 Zrotation Yrotation Xrotation
			JOINT L_Knee
			{
				OFFSET 0.093051 -0.381305 -0.029784
				CHANNELS 3 Zrotation Yrotation Xrotation
				JOINT L_Ankle
				{
					OFFSET -0.010371 -0.431000 -0.033614
					CHANNELS 3 Zrotation Yrotation Xrotation
					End Site #name: L_Foot
					{
						OFFSET 0.069299 -0.038670 0.119418
					}
				}
			}
		}
	}
	JOINT Pelvis_R_Hip
	{
		OFFSET 0.000000 0.000000 0.000000
		CHANNELS 3 Zrotation Yrotation Xrotation
		JOINT R_Hip
		{
			OFFSET -0.055334 -0.094904 -0.002373
			CHANNELS 3 Zrotation Yrotation Xrotation
			JOINT R_Knee
			{
				OFFSET -0.064207 -0.384370 -0.019592
				CHANNELS 3 Zrotation Yrotation Xrotation
				JOINT R_Ankle
				{
					OFFSET 0.025418 -0.419734 -0.065953
					CHANNELS 3 Zrotation Yrotation Xrotation
					End Site #name: R_Foot
					{
						OFFSET -0.057233 -0.039888 0.132134
					}
				}
			}
		}
	}
	JOINT Pelvis_Spine1
	{
		OFFSET 0.000000 0.000000 0.000000
		CHANNELS 3 Zrotation Yrotation Xrotation
		JOINT Spine1
		{
			OFFSET -0.005562 0.124093 -0.043360
			CHANNELS 3 Zrotation Yrotation Xrotation
			JOINT Spine2
			{
				OFFSET 0.012244 0.139499 0.029894
				CHANNELS 3 Zrotation Yrotation Xrotation
				JOINT Spine3
				{
					OFFSET -0.002556 0.056561 0.009225
					CHANNELS 3 Zrotation Yrotation Xrotation
					JOINT Spine3_Neck
					{
						OFFSET 0.000000 0.000000 0.000000
						CHANNELS 3 Zrotation Yrotation Xrotation
						JOINT Neck
						{
							OFFSET -0.005205 0.217920 -0.024551
							CHANNELS 3 Zrotation Yrotation Xrotation
							End Site #name: Head
							{
								OFFSET 0.002365 0.091850 0.046637
							}
						}
					}
					JOINT Spine3_L_Collar
					{
						OFFSET 0.000000 0.000000 0.000000
						CHANNELS 3 Zrotation Yrotation Xrotation
						JOINT L_Collar
						{
							OFFSET 0.072225 0.116603 -0.009480
							CHANNELS 3 Zrotation Yrotation Xrotation
							JOINT L_Shoulder
							{
								OFFSET 0.115937 -0.058643 -0.021018
								CHANNELS 3 Zrotation Yrotation Xrotation
								JOINT L_Elbow
								{
									OFFSET 0.021994 -0.254722 -0.024492
									CHANNELS 3 Zrotation Yrotation Xrotation
									End Site #name: L_Wrist
									{
										OFFSET 0.048810 -0.240214 0.103329
									}
								}
							}
						}
					}
					JOINT Spine3_R_Collar
					{
						OFFSET 0.000000 0.000000 0.000000
						CHANNELS 3 Zrotation Yrotation Xrotation
						JOINT R_Collar
						{
							OFFSET -0.073372 0.120704 -0.024611
							CHANNELS 3 Zrotation Yrotation Xrotation
							JOINT R_Shoulder
							{
								OFFSET -0.108089 -0.054969 -0.020504
								CHANNELS 3 Zrotation Yrotation Xrotation
								JOINT R_Elbow
								{
									OFFSET -0.033684 -0.260739 0.009889
									CHANNELS 3 Zrotation Yrotation Xrotation
									End Site #name: R_Wrist
									{
										OFFSET -0.067980 -0.232763 0.118463
									}
								}
							}
						}
					}
				}
			}
		}
	}
}
MOTION
Frames: 14
Frame Time: 0.041667
0.000000 0.825043 0.000000 -11.714287 14.100967 13.056029 0.000000 0.000000 0.000000 -13.401856 1.369781 -0.390615 -11.166558 2.160107 60.243206 -2.121209 -2.463366 2.076687 0.000000 0.000000 0.000000 14.863552 14.400682 -59.058889 1.111328 0.802951 53.200902 0.856623 8.661894 -3.527950 0.000000 0.000000 0.000000 7.615574 -1.688515 -1.066121 1.590861 -0.232192 31.979130 8.104676 1.170402 -33.163455 0.000000 0.000000 0.000000 -9.180342 4.658696 11.355895 0.000000 0.000000 0.000000 30.181902 -32.915873 -23.413601 1.350733 -0.779885 -8.361801 25.900955 12.077550 -34.684583 0.000000 0.000000 0.000000 -33.955314 3.926040 3.269400 9.707871 -6.453922 34.105786 -65.393840 -40.650743 -27.650334 
0.064696 0.810652 0.127209 -12.636373 8.724957 13.365526 0.000000 0.000000 0.000000 -5.062359 -4.924654 -19.304179 -31.960320 23.868339 77.527986 9.488743 23.913288 -1.568044 0.000000 0.000000 0.000000 15.799220 14.171968 -52.180323 1.332419 1.643095 61.566426 -4.659235 12.499513 -16.554585 0.000000 0.000000 0.000000 8.265599 -2.076445 0.059935 0.088972 1.015755 36.505981 7.656863 3.934012 -39.306031 0.000000 0.000000 0.000000 -9.487040 4.562725 7.983959 0.000000 0.000000 0.000000 24.268457 -16.659872 -8.318837 -7.543669 1.268111 5.991097 34.172480 24.975914 -64.135016 0.000000 0.000000 0.000000 -18.323221 5.260915 -0.604020 6.102929 -2.247585 14.841488 -32.558640 -21.337434 -82.514487 
0.133068 0.809721 0.274375 -11.910267 3.379733 10.025341 0.000000 0.000000 0.000000 5.026675 -7.538531 -35.889548 -35.805088 36.058255 88.090036 12.155695 25.642451 -6.983718 0.000000 0.000000 0.000000 14.624617 9.004794 -33.570018 -0.839211 4.031497 57.470667 -8.987345 19.813456 -26.688579 0.000000 0.000000 0.000000 5.912011 -1.632349 1.387433 -3.250030 3.306129 37.439399 8.740940 9.335833 -37.517405 0.000000 0.000000 0.000000 -13.110115 6.624939 11.029011 0.000000 0.000000 0.000000 32.795601 -2.208297 6.820254 -7.503423 3.910564 23.078374 -1.362290 -37.577311 -82.002193 0.000000 0.000000 0.000000 -20.388208 16.368138 -8.963433 9.482112 3.103226 -9.856271 -23.731492 -4.573503 -75.260037 
0.197521 0.841589 0.429680 -10.443488 0.128490 6.854650 0.000000 0.000000 0.000000 14.180479 -6.725345 -48.878482 -29.967941 31.898096 89.779708 11.525430 21.906323 -8.656965 0.000000 0.000000 0.000000 11.388073 2.418872 -11.631451 -6.630056 6.749881 42.621799 -8.160997 29.435151 -26.510753 0.000000 0.000000 0.000000 1.734690 -0.607332 1.887363 -11.260645 7.589572 35.860649 14.500411 18.674701 -34.785322 0.000000 0.000000 0.000000 -14.391981 7.069196 12.412354 0.000000 0.000000 0.000000 41.650289 4.356796 19.265995 5.698179 0.413862 24.647703 -10.353613 -52.084990 -79.912669 0.000000 0.000000 0.000000 -30.460984 24.429901 -17.439180 3.302890 4.114743 -20.899796 -30.391917 -17.230788 -76.458692 
0.279933 0.894001 0.605174 -7.945089 1.686827 7.161854 0.000000 0.000000 0.000000 15.228987 -7.635360 -57.156286 -22.583459 18.210800 76.461473 11.833477 24.327822 -7.212861 0.000000 0.000000 0.000000 4.253136 -1.635335 6.345695 -10.971983 5.274330 21.740340 11.186687 36.743311 1.686485 0.000000 0.000000 0.000000 1.092095 0.524287 -7.615887 -18.675671 11.690388 37.583413 18.851933 23.764634 -32.017498 0.000000 0.000000 0.000000 -13.013051 6.097687 14.827853 0.000000 0.000000 0.000000 49.087560 3.667924 24.858906 8.526461 -0.497724 26.220999 -10.308500 -52.939684 -82.507591 0.000000 0.000000 0.000000 -45.489636 26.132447 -23.251568 7.106774 4.610820 -17.668616 -34.779105 -25.058265 -76.437501 
0.365024 0.933149 0.784669 -5.292370 3.864383 7.841776 0.000000 0.000000 0.000000 11.903116 -9.285200 -55.569858 -10.257112 4.252368 53.557099 6.397202 12.366587 -4.253616 0.000000 0.000000 0.000000 0.839914 -3.726540 19.191184 -16.612997 4.154702 7.263368 26.204636 31.060035 25.830446 0.000000 0.000000 0.000000 -0.766407 1.514566 -16.225064 -23.844013 15.008720 40.624959 20.936910 27.065601 -33.588810 0.000000 0.000000 0.000000 -11.553517 5.006686 21.673904 0.000000 0.000000 0.000000 52.121731 2.050621 26.434072 10.957641 -1.343771 26.672388 -10.932585 -56.602427 -85.266217 0.000000 0.000000 0.000000 -51.288847 28.022580 -27.783667 9.219435 2.934307 -8.206273 -31.718241 -19.436714 -82.758607 
0.452489 0.944317 0.960400 -5.416019 4.669705 5.463710 0.000000 0.000000 0.000000 9.448407 -8.600833 -45.716735 -0.178063 -0.893892 29.017623 1.716032 -2.492680 -4.139467 0.000000 0.000000 0.000000 -1.444840 -4.368832 25.356127 -14.046157 4.966965 14.787925 18.654587 27.095621 17.406006 0.000000 0.000000 0.000000 0.687007 1.578738 -18.428841 -25.968934 16.027508 40.581955 21.430338 27.244063 -32.073384 0.000000 0.000000 0.000000 -9.548138 3.739612 18.608742 0.000000 0.000000 0.000000 48.357262 6.046495 28.745789 10.834233 -1.279808 25.281261 -7.732745 -54.264192 -88.235125 0.000000 0.000000 0.000000 -48.216888 27.695265 -26.857657 10.247546 1.481788 -1.754947 -23.906747 0.285482 -89.759790 
0.553226 0.933760 1.131329 -6.235257 6.104110 3.294288 0.000000 0.000000 0.000000 5.257488 -8.642271 -39.076628 2.565855 -1.482901 22.542981 2.056087 2.004905 -2.336757 0.000000 0.000000 0.000000 -1.034170 -4.201556 23.434987 -11.486212 6.742504 31.032098 11.134104 20.010220 9.555649 0.000000 0.000000 0.000000 3.996615 1.653340 -20.878194 -25.553552 16.608280 44.268972 20.186672 25.911691 -33.307312 0.000000 0.000000 0.000000 -7.803809 2.706404 19.018922 0.000000 0.000000 0.000000 38.651311 9.716114 25.503318 3.160447 1.145096 24.117651 -6.824984 -47.566972 -82.629346 0.000000 0.000000 0.000000 -41.379869 25.421335 -22.250156 14.625896 -1.308363 10.312767 -14.102516 22.363921 -84.554643 
0.640977 0.904410 1.285309 -5.475617 9.070438 1.369999 0.000000 0.000000 0.000000 4.209893 -9.300837 -39.184488 -9.614799 2.149538 38.587618 4.300188 6.233821 -3.809958 0.000000 0.000000 0.000000 2.044546 -2.449369 11.479218 -7.908328 7.669068 57.983044 3.795904 6.668978 3.937673 0.000000 0.000000 0.000000 1.174357 1.258708 -15.137974 -20.475975 12.131334 40.745028 16.600463 20.814562 -34.899180 0.000000 0.000000 0.000000 -3.972509 0.141079 22.679798 0.000000 0.000000 0.000000 25.280176 8.110687 15.291669 -1.882291 2.277234 21.316354 3.207813 -34.557751 -88.426308 0.000000 0.000000 0.000000 -33.829642 17.819224 -12.785442 15.555789 -4.296817 21.327492 1.896560 33.348669 -61.419216 
0.722222 0.888904 1.425444 0.410804 12.901918 -0.394231 0.000000 0.000000 0.000000 -7.595726 -9.147397 -28.698753 -12.818837 3.094093 44.959466 10.092517 5.293456 -14.452466 0.000000 0.000000 0.000000 0.849694 0.851750 -5.023717 -7.593905 8.427131 79.606188 -0.236013 4.214232 -3.258175 0.000000 0.000000 0.000000 -4.640114 1.335748 -7.695869 -17.056932 9.577003 39.614839 11.814644 13.337577 -37.333951 0.000000 0.000000 0.000000 -0.028268 -2.403617 24.166751 0.000000 0.000000 0.000000 18.860114 -1.248457 4.331312 -5.271619 1.061741 6.114810 9.128316 -23.153072 -90.628252 0.000000 0.000000 0.000000 -29.669347 9.429960 -4.236603 16.454722 -6.344153 28.541753 4.487132 25.199004 -46.466615 
0.805315 0.891815 1.566479 -2.042197 14.818090 -3.075044 0.000000 0.000000 0.000000 -12.262122 -3.904163 -13.114335 -7.933874 0.356202 43.049121 13.627685 -0.271345 -22.278082 0.000000 0.000000 0.000000 8.207330 4.828280 -23.708232 -9.298049 10.405427 85.981293 -1.117133 7.190350 -6.691094 0.000000 0.000000 0.000000 1.070781 0.015522 -2.035079 -10.674512 5.653926 36.380246 5.625181 5.202210 -37.434763 0.000000 0.000000 0.000000 -3.345922 0.063179 28.766185 0.000000 0.000000 0.000000 20.495509 -9.528041 -2.111508 -0.100327 -0.594787 -6.042041 13.708570 -11.958865 -90.044136 0.000000 0.000000 0.000000 -34.448886 3.045102 2.979717 14.333297 -7.857443 36.350229 2.752483 21.201575 -43.478574 
0.892300 0.918146 1.718401 -3.386785 15.597962 -4.381504 0.000000 0.000000 0.000000 -15.257205 2.888561 5.009801 -0.145950 -1.966988 31.547797 9.976709 -8.272683 -18.430051 0.000000 0.000000 0.000000 12.979997 8.152083 -35.620600 -11.614626 10.685375 71.815071 -1.519233 4.161537 -6.225364 0.000000 0.000000 0.000000 4.696369 -0.345430 -4.239864 -4.038500 2.160003 38.472458 1.168580 -2.142077 -36.569076 0.000000 0.000000 0.000000 -5.020858 2.035619 30.846597 0.000000 0.000000 0.000000 27.655442 -17.597332 -8.664040 7.874367 -0.464803 -1.636390 18.725960 -1.091833 -93.607581 0.000000 0.000000 0.000000 -37.482645 -1.425370 9.325299 6.704218 -6.506275 39.008606 0.216234 20.471533 -46.678981 
0.985324 0.950924 1.879851 -4.781179 15.141343 -5.456769 0.000000 0.000000 0.000000 -15.146919 8.492897 21.397662 6.990086 -2.359731 17.642574 -4.041839 -16.822371 -1.406442 0.000000 0.000000 0.000000 16.611139 9.521173 -37.261824 -12.451139 7.871920 44.412277 4.632164 7.263984 5.623515 0.000000 0.000000 0.000000 8.105054 -0.309247 -8.117079 1.412157 -1.005944 40.981711 -3.141127 -7.680876 -36.556700 0.000000 0.000000 0.000000 -6.287679 3.814491 33.099053 0.000000 0.000000 0.000000 33.895064 -20.256126 -11.716983 11.544797 -0.701258 5.061354 20.477807 2.877156 -94.596000 0.000000 0.000000 0.000000 -41.584359 -3.947974 14.762068 4.265345 -6.022581 39.968758 -5.179931 15.669909 -50.196248 
1.079173 0.954317 2.041781 -4.728983 15.140562 -5.688794 0.000000 0.000000 0.000000 -17.207886 11.125291 27.475361 11.005751 -3.820082 20.633807 -3.977334 -12.592376 0.108659 0.000000 0.000000 0.000000 18.293364 9.521725 -35.526477 -11.498150 4.844585 22.230034 12.365686 21.927057 11.152684 0.000000 0.000000 0.000000 8.086998 0.239499 -11.704157 4.349586 -2.917589 42.341068 -4.022714 -9.851202 -37.114550 0.000000 0.000000 0.000000 -6.323088 4.532800 38.049108 0.000000 0.000000 0.000000 35.581947 -21.887675 -13.815012 15.535995 -1.375569 9.747540 19.955054 0.773711 -93.537802 0.000000 0.000000 0.000000 -43.305483 -7.621775 20.301647 -2.251435 -4.239725 40.533223 -11.342709 10.864353 -56.655859 
